# xmcd
# 
# Track frame offsets:
#     150
#     12457
#     30157
#     42442
# 
# Disc length: 799
# 
# Revision: 0
# Processed by: cddbd v1.5.2PL0 Copyright (c) Steve Scherf et al.
# Submitted via: BonkEnc v1.0
# 
DISCID=25031d04
DTITLE=野坂昭如 - チンタマケの唄
DYEAR=0
DGENRE=
TTITLE0=チンタマケの唄
TTITLE1=沖縄鎮魂歌～飛べ蛍（ヂンヂン）
TTITLE2=ｙ
TTITLE3=う
EXTD=
EXTT0=
EXTT1=
EXTT2=
EXTT3=
PLAYORDER=
